<?xml version="1.0" standalone="no"?>
<!DOCTYPE svg PUBLIC "-//W3C//DTD SVG 20010904//EN"
 "http://www.w3.org/TR/2001/REC-SVG-20010904/DTD/svg10.dtd">
<svg version="1.0" xmlns="http://www.w3.org/2000/svg"
 width="965.000000pt" height="639.000000pt" viewBox="0 0 965.000000 639.000000"
 preserveAspectRatio="xMidYMid meet">

<g transform="translate(0.000000,639.000000) scale(0.100000,-0.100000)"
fill="#000000" stroke="none">
<path d="M1463 6355 c0 -22 2 -30 4 -17 2 12 2 30 0 40 -3 9 -5 -1 -4 -23z"/>
<path d="M1667 6003 c9 -468 8 -506 -13 -538 -11 -17 -14 -33 -8 -57 4 -18 7
-86 5 -151 -2 -82 1 -122 10 -133 15 -18 14 -647 -1 -652 -17 -6 -12 -99 5
-106 17 -6 10 -35 -13 -53 -13 -11 -13 -15 0 -35 35 -53 43 -211 14 -267 -17
-31 -17 -34 1 -53 17 -19 18 -42 15 -347 -2 -186 -7 -330 -13 -335 -14 -15
-11 -46 4 -41 15 6 12 -210 -3 -288 -6 -30 -7 -55 -1 -66 13 -23 22 -280 11
-301 -5 -9 -10 -73 -11 -143 -2 -78 -6 -125 -13 -124 -15 3 -19 -30 -10 -82
l8 -46 7 50 c5 43 6 37 7 -38 2 -69 -2 -96 -15 -119 -17 -28 -17 -30 0 -43 18
-13 19 -36 13 -517 -4 -412 -8 -510 -20 -543 -20 -54 -20 -105 1 -120 13 -10
16 -31 17 -110 1 -91 0 -98 -21 -106 -31 -12 -38 -29 -14 -36 26 -7 35 -40 27
-101 -3 -26 -6 -122 -7 -214 0 -94 -5 -170 -10 -174 -5 -3 -6 -11 -2 -17 4 -6
6 -26 4 -44 -2 -29 0 -33 22 -33 l24 0 3 448 c4 616 6 5224 2 5610 -2 265 -5
312 -17 312 -13 0 -14 -52 -8 -387z"/>
<path d="M2480 6383 c0 -5 14 -16 30 -25 28 -16 30 -16 40 2 15 28 13 30 -30
30 -22 0 -40 -3 -40 -7z"/>
<path d="M4450 6349 c-36 -22 -72 -48 -81 -59 -15 -17 -20 -17 -58 -6 -23 6
-54 24 -69 38 -33 31 -56 25 -92 -25 -14 -19 -39 -45 -57 -57 -47 -32 -48 -69
-3 -95 32 -19 35 -24 38 -78 3 -52 1 -59 -18 -64 -27 -7 -27 -49 0 -63 17 -9
24 -7 38 11 24 29 82 48 109 36 61 -27 19 -223 -53 -249 -25 -9 -34 -20 -44
-52 -14 -47 -27 -66 -46 -66 -7 0 -24 -10 -38 -22 -13 -13 -41 -32 -63 -43
-21 -11 -40 -23 -43 -27 -3 -4 -25 -8 -50 -10 -37 -2 -48 -8 -65 -34 -22 -34
-76 -74 -100 -74 -28 0 -63 30 -68 60 -13 60 -99 80 -113 25 -5 -19 1 -33 25
-60 17 -20 31 -44 31 -55 0 -18 43 -60 61 -60 5 0 17 8 28 19 10 10 35 21 55
25 28 5 44 17 64 46 30 44 70 58 115 41 35 -14 72 -14 117 -1 31 8 39 17 54
59 17 47 67 110 90 112 6 0 36 1 66 2 52 2 56 4 70 36 42 94 68 137 102 164
l38 30 62 -32 62 -32 18 23 c17 23 17 24 -18 57 -30 28 -40 32 -67 27 -84 -18
-93 -18 -106 -2 -20 24 -16 60 10 95 17 23 23 45 24 83 0 47 -2 52 -25 58 -14
4 -31 2 -38 -3 -14 -11 -87 -15 -97 -5 -12 11 -12 43 -1 50 23 15 95 4 149
-23 11 -6 25 -4 41 6 18 12 38 14 87 9 85 -9 120 -6 133 9 17 21 64 47 83 47
10 1 43 12 73 25 l55 24 30 -34 c57 -63 99 -65 172 -6 74 59 143 73 143 29 0
-10 7 -32 15 -48 14 -28 19 -30 74 -30 47 0 61 -4 79 -23 12 -13 22 -31 22
-40 0 -38 41 -40 156 -11 117 29 138 42 149 93 4 18 13 35 21 38 9 3 14 21 14
52 0 25 7 55 15 65 8 11 15 23 15 28 0 4 -298 8 -662 7 l-663 0 -65 -40z"/>
<path d="M6405 6370 c-16 -10 -48 -24 -70 -30 -24 -7 -56 -29 -79 -53 l-39
-41 26 -22 c39 -34 43 -66 14 -109 -14 -21 -23 -44 -20 -52 8 -20 -16 -60 -40
-67 -11 -2 -44 0 -74 6 -43 9 -57 16 -64 35 -4 12 -13 23 -19 23 -5 0 -10 4
-10 9 0 19 -60 73 -75 67 -33 -12 6 -86 52 -99 36 -11 52 -37 57 -93 2 -23 13
-55 25 -72 23 -32 19 -61 -8 -64 -101 -9 -140 -5 -164 18 -15 13 -32 24 -40
24 -17 0 -69 46 -65 57 2 5 -8 10 -22 12 -14 1 -28 7 -31 12 -3 5 -56 11 -119
13 -62 3 -118 10 -123 15 -7 7 -15 5 -24 -7 -12 -16 -15 -15 -34 8 -20 23 -21
23 -15 3 7 -20 5 -21 -66 -17 -40 2 -82 8 -93 12 -51 23 -96 31 -174 31 -92 1
-126 14 -64 26 21 4 61 18 89 31 35 16 62 23 85 19 29 -4 28 -3 -10 10 -67 22
-157 31 -251 24 -83 -6 -86 -7 -115 -44 -16 -21 -58 -72 -93 -113 -34 -42 -60
-82 -57 -90 8 -23 -45 -101 -90 -132 -24 -17 -54 -45 -67 -63 -12 -17 -30 -41
-40 -51 -23 -25 -23 -33 0 -39 12 -3 9 -5 -8 -6 -14 -1 -35 -9 -48 -19 -21
-17 -18 -17 90 -17 112 0 223 -20 197 -35 -6 -4 -8 -13 -4 -20 6 -9 -3 -10
-36 -5 -36 6 -42 5 -31 -6 16 -17 15 -49 -2 -49 -16 0 -43 29 -30 32 5 1 -29
4 -76 8 -47 3 -93 10 -102 14 -13 6 -18 4 -18 -8 0 -12 -9 -16 -34 -16 -19 0
-37 -4 -40 -9 -3 -5 -31 -12 -62 -16 -49 -6 -55 -9 -51 -26 6 -21 -10 -20 -88
8 -22 8 -74 17 -117 20 -65 5 -83 3 -122 -16 -54 -27 -84 -65 -100 -129 -10
-37 -17 -47 -41 -55 -17 -6 -33 -15 -37 -21 -14 -21 -29 -116 -23 -137 7 -20
12 -21 60 -15 29 3 60 9 68 12 20 7 28 43 16 65 -8 16 -2 15 43 -6 29 -14 62
-25 74 -25 25 0 44 -18 44 -42 0 -28 33 -21 52 11 13 24 26 31 75 40 32 6 89
18 127 26 38 9 71 13 73 11 21 -21 -55 -156 -87 -156 -29 0 -76 -26 -84 -45
-3 -9 -6 -27 -6 -39 0 -12 -6 -28 -12 -34 -10 -10 -10 -17 0 -32 6 -11 12 -27
12 -37 0 -9 18 -51 40 -94 22 -43 40 -87 40 -97 0 -22 62 -82 85 -82 7 0 20
-6 28 -14 12 -13 19 -9 47 30 19 24 37 44 42 44 14 0 -22 -63 -59 -101 -34
-36 -35 -37 -19 -67 9 -17 16 -54 16 -82 0 -55 10 -63 30 -25 7 14 20 25 27
25 16 0 13 -6 -29 -66 -16 -23 -28 -48 -27 -55 1 -8 -1 -22 -5 -31 -8 -18 9
-108 26 -141 8 -15 12 -16 24 -6 8 6 17 9 21 5 7 -6 -27 -79 -39 -84 -13 -6
-9 -30 4 -34 20 -7 -36 -53 -68 -56 -17 -1 -40 8 -62 24 -31 24 -36 25 -44 10
-13 -24 -35 -20 -79 15 -37 29 -40 30 -81 18 -24 -7 -46 -17 -49 -22 -4 -6
-14 -7 -23 -4 -8 3 -18 2 -21 -3 -4 -6 -15 -10 -26 -10 -11 0 -22 -7 -25 -15
-3 -8 -15 -17 -25 -20 -26 -9 -52 -37 -102 -110 -22 -33 -60 -80 -85 -105 -44
-45 -44 -45 -38 -100 3 -30 11 -102 16 -160 6 -58 19 -139 29 -180 11 -41 22
-95 25 -120 6 -43 4 -47 -31 -81 -74 -71 -222 -166 -236 -153 -10 11 10 -61
26 -92 18 -36 12 -47 -33 -57 -21 -5 -31 0 -51 26 -15 18 -36 52 -48 75 -12
23 -26 42 -32 42 -6 0 -9 6 -6 14 3 8 -5 19 -18 26 -13 7 -27 22 -32 33 -10
21 -10 21 -27 -5 -10 -15 -24 -53 -33 -85 -8 -32 -19 -62 -23 -68 -12 -15 -31
-128 -23 -136 5 -4 17 -9 28 -12 11 -3 -1 -5 -27 -6 -36 -1 -48 -5 -48 -16 0
-8 -4 -15 -9 -15 -17 0 -68 -124 -131 -320 -74 -229 -75 -246 -63 -595 5 -126
6 -241 2 -255 -4 -14 -12 -44 -18 -67 -11 -40 -14 -42 -75 -63 -36 -12 -69
-26 -74 -33 -16 -21 -104 -221 -109 -248 -5 -27 64 -210 131 -351 23 -46 34
-82 30 -94 -4 -14 -3 -16 4 -5 7 10 16 1 37 -40 39 -77 67 -156 63 -176 -3
-16 -5 -16 -23 2 -58 57 -75 65 -131 59 -37 -5 -54 -3 -54 5 0 6 -6 11 -14 11
-21 0 -31 21 -15 31 8 5 10 9 4 9 -5 0 -11 15 -12 34 -1 30 3 37 31 50 41 20
70 51 60 67 -5 9 0 10 17 6 l24 -6 -24 20 c-14 11 -28 16 -35 11 -33 -25 -210
-2 -227 30 -5 10 -16 18 -24 18 -7 0 -15 6 -18 13 -3 8 -11 6 -27 -9 -21 -21
-22 -25 -11 -85 12 -73 7 -103 -25 -141 -22 -27 -22 -27 -27 -5 -3 12 -3 180
0 372 10 528 8 739 -7 730 -5 -3 -11 -25 -12 -48 l-1 -42 -7 45 -7 45 -1 -53
c-1 -29 1 -51 5 -49 5 3 9 -5 9 -18 2 -21 -1 -23 -22 -15 -19 7 -24 6 -24 -5
0 -8 5 -15 10 -15 6 0 10 -11 10 -25 0 -26 15 -34 23 -12 3 6 6 -12 6 -41 1
-37 -2 -51 -10 -46 -6 3 -15 1 -20 -7 -5 -8 -23 -12 -48 -10 -32 2 -41 -1 -41
-13 0 -12 11 -16 43 -17 23 -1 32 -4 20 -6 -16 -3 -23 -14 -28 -44 -4 -21 -12
-39 -18 -39 -14 0 -41 -79 -32 -89 4 -3 34 -6 68 -6 57 0 62 -2 65 -22 2 -16
-2 -23 -15 -24 -28 -2 -36 -4 -73 -22 -33 -15 -34 -17 -13 -23 24 -7 31 -24
11 -24 -7 0 -22 -7 -32 -15 -15 -11 -16 -17 -7 -28 8 -10 8 -22 1 -44 -8 -22
-7 -38 4 -65 15 -36 36 -48 87 -48 37 0 46 -27 14 -42 -19 -9 -28 -9 -37 0
-13 13 -50 15 -85 6 -18 -5 -21 -10 -13 -24 6 -10 19 -22 30 -25 24 -8 25 -18
5 -39 -9 -8 -21 -30 -27 -47 -12 -36 -7 -42 57 -61 50 -14 62 -25 48 -39 -14
-14 -131 -38 -185 -39 -38 0 -94 -17 -86 -25 3 -3 32 -1 66 3 34 5 66 5 73 2
13 -8 -23 -20 -63 -20 -22 0 -28 -6 -33 -32 -4 -17 -14 -39 -23 -47 -13 -13
-11 -16 14 -27 16 -7 42 -15 57 -19 22 -4 27 -11 25 -28 -2 -14 3 -23 14 -25
13 -2 16 1 12 12 -3 8 -1 23 4 32 9 15 11 14 27 -9 9 -15 21 -24 27 -21 5 3
21 3 35 -1 40 -10 15 -24 -55 -31 -34 -4 -62 -11 -62 -17 0 -6 -9 -2 -20 8
-16 15 -30 17 -77 11 -66 -8 -67 -8 -59 -34 5 -15 19 -21 59 -25 28 -3 70 -3
92 -1 22 2 57 -3 78 -11 20 -8 50 -15 66 -15 37 0 43 -8 23 -31 -10 -11 -29
-19 -49 -19 -18 0 -33 -4 -33 -10 0 -10 516 -18 715 -11 89 3 106 9 118 45 2
6 33 -2 80 -22 l77 -32 2627 2 2627 3 9 35 c5 19 14 60 22 90 8 30 23 98 35
150 12 52 28 119 37 148 9 33 14 76 11 112 -2 32 -1 57 4 54 4 -3 8 -16 8 -29
0 -36 11 -59 20 -44 5 8 12 -2 19 -27 16 -58 14 -69 -21 -105 l-33 -32 -3
-174 -2 -173 55 0 55 0 -6 443 c-3 243 -5 449 -6 457 0 8 5 56 12 105 13 87
15 111 11 165 0 14 -1 63 -1 110 1 47 -5 113 -12 148 -9 49 -9 70 0 96 9 25
10 58 2 135 -6 56 -8 110 -5 119 9 31 7 206 -4 247 -6 24 -10 232 -11 530 -1
270 -4 555 -8 635 -6 135 -7 141 -15 85 -5 -33 -8 -103 -7 -155 6 -263 -2
-370 -26 -370 -19 0 -18 -9 3 -32 16 -18 16 -21 0 -47 -22 -37 -23 -91 -2 -91
8 0 15 -4 15 -9 0 -5 -7 -11 -15 -15 -16 -6 -21 -52 -6 -58 5 -1 12 -22 16
-45 6 -36 4 -43 -9 -43 -17 0 -22 -35 -6 -45 14 -8 1 -36 -33 -72 -29 -31 -30
-34 -14 -51 9 -10 17 -30 17 -45 0 -28 15 -44 25 -27 9 15 25 12 25 -5 0 -9
-12 -20 -26 -25 -14 -6 -23 -14 -19 -19 3 -5 0 -20 -5 -33 -8 -16 -8 -42 -1
-83 l10 -60 -35 -30 c-19 -16 -34 -36 -34 -43 0 -7 -7 -20 -15 -28 -8 -9 -15
-26 -15 -38 0 -13 -7 -29 -15 -36 -19 -16 -19 -25 2 -50 11 -12 30 -20 50 -20
34 0 41 -8 22 -27 -8 -8 -6 -17 10 -35 28 -30 25 -72 -6 -76 -21 -3 -34 -32
-14 -32 22 0 19 -43 -5 -65 -31 -29 -30 -43 4 -47 l27 -3 2 -89 c1 -51 -2 -95
-8 -102 -7 -9 -7 -19 0 -32 10 -18 11 -42 9 -167 -2 -101 5 -219 14 -244 6
-16 4 -31 -5 -45 -9 -15 -11 -34 -5 -65 15 -85 0 -52 -21 46 -12 54 -31 121
-42 148 -11 28 -32 82 -45 120 -14 39 -31 86 -39 105 -71 184 -79 215 -50 204
8 -4 15 -2 15 4 0 6 -5 12 -11 14 -14 5 -21 236 -8 244 5 3 4 14 -2 26 -7 12
-13 106 -15 237 -3 119 -5 225 -6 236 -1 11 0 47 2 80 1 33 0 166 -4 295 -3
129 -8 363 -11 519 -3 173 -9 289 -15 295 -7 7 -10 -18 -10 -77 0 -69 -3 -89
-15 -93 -20 -8 -20 -68 1 -85 13 -11 14 -13 0 -21 -13 -7 -13 -12 1 -45 13
-33 13 -38 0 -48 -12 -9 -16 -47 -21 -196 -3 -101 -8 -220 -11 -264 -3 -44 -8
-152 -10 -240 -9 -319 -19 -512 -27 -521 -5 -4 -115 277 -173 441 -31 88 -61
175 -68 193 -9 27 -9 35 3 42 11 7 12 17 3 53 -7 31 -7 65 0 107 7 46 7 75 -2
111 -7 26 -9 53 -6 60 4 6 7 40 6 76 -1 49 -7 72 -24 96 -12 18 -25 34 -29 35
-17 8 -6 22 16 22 20 0 25 6 31 43 4 23 6 83 4 132 -1 50 -3 117 -3 149 -1 37
-6 61 -14 64 -6 2 -12 -3 -12 -10 0 -8 -9 -31 -20 -53 -11 -22 -20 -48 -20
-59 0 -18 -1 -19 -20 -1 -11 10 -20 26 -20 37 0 10 -7 18 -15 18 -19 0 -14
-108 6 -120 16 -11 29 -4 29 16 0 9 7 14 18 12 19 -4 28 -59 17 -115 -6 -33
-25 -46 -25 -18 0 20 -16 19 -24 -1 -11 -29 -6 -72 10 -89 16 -15 14 -16 -17
-13 -26 2 -35 8 -37 25 -2 13 -12 29 -22 36 -18 12 -20 31 -25 222 -5 226 -12
255 -59 255 -14 0 -26 5 -28 11 -2 7 -17 5 -44 -6 -47 -19 -69 -59 -78 -145
-3 -30 -8 -69 -12 -86 -5 -28 -3 -31 35 -46 42 -17 61 -42 44 -59 -11 -11 -38
-1 -98 36 -65 41 -153 85 -169 85 -10 0 -13 -6 -10 -15 4 -8 16 -15 29 -15 12
0 34 -9 48 -20 14 -11 33 -20 44 -20 15 0 16 -2 3 -10 -12 -8 -11 -10 6 -10
12 0 41 -13 65 -30 24 -16 50 -30 57 -30 6 0 12 -7 12 -15 0 -14 -3 -14 -30 0
-16 8 -38 15 -50 15 -28 0 -99 37 -129 66 -13 13 -33 24 -43 24 -11 0 -41 21
-67 46 -72 72 -166 129 -388 236 l-73 35 37 -41 c34 -37 85 -77 110 -87 28
-11 173 -116 173 -125 0 -7 7 -14 15 -18 8 -3 15 -11 15 -19 0 -7 16 -31 35
-52 19 -22 33 -40 31 -42 -7 -8 -75 23 -107 49 -40 30 -69 36 -69 14 0 -12 -8
-11 -50 2 -31 11 -50 23 -50 33 0 8 -18 23 -39 33 -22 9 -53 32 -70 51 -17 19
-35 35 -41 35 -6 0 -9 4 -6 9 3 5 -5 12 -19 15 -29 7 -65 40 -65 59 0 20 22
37 50 38 21 0 23 2 9 11 -14 10 -8 27 52 145 37 73 85 163 105 199 31 55 35
70 26 85 -16 26 -15 29 9 29 15 0 19 4 15 16 -3 9 -6 18 -6 20 0 2 -6 4 -13 4
-8 0 -24 11 -36 24 -13 14 -51 34 -86 44 -92 29 -167 13 -241 -51 -31 -27 -30
-41 3 -63 45 -29 8 -28 -52 2 -36 17 -54 32 -51 40 5 14 1 15 -81 34 -39 9
-59 20 -78 43 -14 18 -30 37 -35 44 -5 6 -27 12 -48 11 -22 0 -49 5 -61 12
-26 13 -39 7 -23 -13 6 -7 24 -12 39 -11 40 2 47 -5 27 -27 -26 -29 -59 -24
-76 11 -14 29 -81 74 -93 62 -11 -12 -4 -71 20 -157 36 -129 66 -322 70 -455
3 -117 12 -170 40 -250 9 -25 25 -80 36 -123 18 -72 19 -81 4 -109 -8 -17 -15
-40 -15 -51 0 -14 -3 -17 -13 -9 -18 15 -69 19 -74 5 -2 -6 6 -13 19 -15 28
-4 38 -38 11 -38 -14 -1 -12 -4 9 -15 l26 -15 -19 -62 c-10 -35 -24 -99 -30
-143 -6 -44 -14 -85 -17 -92 -11 -18 -122 -113 -135 -115 -7 -1 -25 -2 -42 -2
-29 -1 -30 -2 -32 -56 -2 -30 -10 -127 -18 -215 -16 -157 -28 -228 -80 -470
-61 -279 -75 -351 -80 -423 -6 -74 -67 -304 -87 -329 -27 -33 -58 68 -58 188
0 39 5 79 11 90 6 13 7 25 1 32 -6 7 -10 224 -11 532 -3 773 -13 943 -67 1079
-13 34 -13 44 1 97 8 33 24 78 34 100 18 37 19 44 7 68 -21 39 -58 75 -65 63
-3 -6 -43 -13 -88 -17 -46 -4 -87 -13 -92 -19 -12 -15 -58 -128 -66 -164 -5
-27 -4 -28 22 -25 40 6 68 -27 67 -79 -1 -23 -17 -72 -38 -117 -45 -97 -66
-201 -67 -344 -2 -180 -8 -183 -58 -27 -24 74 -57 169 -73 210 -16 41 -33 101
-38 132 -6 42 -18 70 -48 110 -60 82 -121 211 -80 170 7 -7 17 -12 22 -12 6 0
-6 17 -25 38 -58 61 -62 70 -66 135 -3 41 -13 77 -29 106 -13 24 -24 48 -24
52 0 5 -21 40 -46 79 -36 54 -45 75 -40 95 10 38 41 32 69 -12 50 -79 139
-143 242 -174 137 -42 301 -79 351 -79 52 0 69 6 138 45 203 115 386 301 386
391 0 39 -35 95 -55 88 -10 -4 -15 0 -15 13 0 11 -7 41 -16 67 -9 26 -13 50
-9 54 4 4 35 -23 70 -59 44 -47 68 -82 80 -118 9 -28 35 -71 59 -98 24 -26 48
-57 54 -68 10 -17 11 -15 11 20 1 72 -60 442 -76 464 -1 2 -9 -1 -16 -7 -17
-14 -27 -6 -27 22 -1 19 -2 19 -11 4 -12 -22 -39 -24 -39 -3 0 8 -6 15 -14 15
-38 0 -112 127 -119 203 -4 40 -1 52 16 68 11 10 31 19 43 19 13 0 28 8 34 18
8 13 10 1 5 -49 -6 -59 -3 -73 20 -119 18 -35 31 -50 41 -46 8 3 26 1 41 -5
27 -10 27 -10 8 10 -10 12 -28 21 -41 21 -47 0 -30 37 28 59 18 7 30 22 38 48
14 44 54 106 92 145 25 24 27 31 21 77 -5 42 -3 51 9 51 23 0 36 -20 40 -60 4
-46 34 -48 63 -4 16 26 29 33 68 38 40 6 47 10 46 29 -1 30 -33 82 -50 81 -8
-1 -23 -5 -34 -9 -13 -4 -15 -4 -8 2 17 12 -55 91 -93 102 -37 9 -43 45 -19
108 13 34 29 52 63 74 67 42 97 39 156 -18 57 -55 88 -62 97 -24 3 15 -1 38
-10 53 -14 26 -14 29 9 53 14 14 48 41 76 60 72 48 78 67 39 114 -19 21 -24
37 -20 54 7 27 -16 57 -43 57 -10 0 -34 -9 -55 -20 -20 -11 -51 -20 -67 -20
-37 0 -85 -23 -94 -45 -22 -58 9 -71 70 -30 41 28 52 30 88 14 32 -15 40 -47
18 -78 -9 -13 -24 -37 -33 -53 -19 -38 -36 -48 -77 -48 -46 0 -68 14 -75 48
-4 18 -14 31 -26 35 -12 3 -21 1 -21 -4 0 -13 -81 -52 -90 -42 -13 13 -51 133
-60 188 -5 28 -15 68 -23 90 -26 72 -29 105 -9 111 9 3 47 19 84 36 42 18 75
27 88 23 11 -4 20 -2 20 4 0 6 5 11 11 11 6 0 17 7 26 16 9 8 22 13 29 10 13
-5 43 11 122 66 24 17 31 29 27 44 -5 21 20 43 27 24 2 -5 14 -11 28 -13 14
-2 42 -12 63 -21 34 -15 40 -15 60 -1 16 11 22 26 23 55 0 47 5 52 41 55 58 5
137 32 148 51 5 10 15 22 20 26 6 4 10 13 10 19 0 17 25 24 26 7 1 -7 0 -27
-1 -44 -1 -18 3 -35 9 -39 6 -3 11 -14 11 -23 0 -10 9 -24 20 -32 11 -8 27
-38 35 -66 15 -53 41 -72 78 -59 16 7 57 92 57 119 0 25 46 67 65 60 11 -5 18
0 22 15 3 11 13 22 22 22 31 2 36 4 91 32 30 15 61 35 68 44 19 26 14 81 -10
127 -40 74 -42 75 -119 69 l-68 -6 -18 32 c-10 17 -21 31 -25 31 -5 0 -8 15
-8 34 0 29 -3 33 -20 29 -23 -6 -27 -43 -5 -43 18 0 18 -5 5 -31 -6 -10 -17
-19 -24 -19 -7 0 -21 -9 -31 -20 -25 -28 -30 -26 -54 21 -21 39 -21 79 0 79
19 0 8 31 -13 39 -53 19 -105 -34 -108 -109 -1 -32 -9 -45 -50 -75 -50 -37
-102 -34 -130 5 -17 24 -21 39 -16 66 8 38 66 104 94 104 21 1 52 23 52 38 0
6 8 17 18 24 10 7 21 21 25 30 4 11 19 18 44 20 27 2 39 8 41 21 3 16 -17 17
-325 16 -302 0 -330 -2 -358 -19z m195 -199 c0 -4 32 -23 70 -40 47 -22 70
-38 70 -50 0 -23 -20 -41 -45 -41 -25 0 -121 34 -143 52 -9 7 -18 12 -19 13
-1 0 -4 12 -8 27 -6 23 -3 29 16 37 31 12 59 13 59 2z m-300 -279 c64 -18 65
-19 68 -56 5 -55 -38 -94 -53 -48 -7 24 -38 38 -90 41 -22 1 -44 6 -49 11 -6
6 -18 10 -28 10 -24 0 -23 8 5 35 28 28 64 30 147 7z m-489 -12 c30 -17 22
-30 -11 -19 -16 6 -27 15 -24 20 7 11 11 11 35 -1z m974 -32 c6 -4 2 -8 -7 -8
-10 0 -18 7 -18 17 0 9 3 12 8 7 4 -5 12 -12 17 -16z m-2010 -12 c21 -9 35
-22 35 -32 0 -16 1 -16 18 -1 16 15 24 15 87 2 89 -19 95 -21 95 -40 0 -18 2
-18 35 -3 18 8 29 8 36 1 7 -7 -1 -17 -26 -33 -20 -12 -43 -33 -52 -46 -17
-26 -53 -33 -53 -10 0 8 5 18 10 21 6 3 10 19 10 36 0 24 -4 29 -25 29 -17 0
-29 -9 -39 -28 -8 -16 -22 -34 -30 -41 -25 -21 -31 12 -10 48 13 23 15 34 7
42 -8 8 -20 -2 -43 -36 -29 -43 -34 -46 -63 -39 -35 7 -46 19 -47 49 -1 19 -1
19 -19 -2 -21 -25 -41 -30 -41 -10 0 18 58 107 70 107 6 0 26 -7 45 -14z
m1514 -150 c19 -20 20 -26 9 -47 -11 -21 -19 -24 -62 -21 -26 2 -68 -4 -92
-12 l-44 -15 -6 26 c-17 65 145 122 195 69z m-1529 -256 c-19 -13 -30 -13 -30
0 0 6 10 10 23 10 18 0 19 -2 7 -10z m440 -425 c7 -8 22 -15 35 -15 12 0 32
-8 43 -19 24 -20 30 -37 10 -25 -7 5 -19 9 -28 10 -32 5 -116 13 -132 14 -10
0 -18 7 -18 16 0 8 5 12 10 9 6 -3 10 1 10 9 0 21 53 21 70 1z m854 0 c-4 -8
-12 -15 -19 -15 -16 0 -55 -47 -55 -66 0 -10 13 -14 38 -14 45 0 72 -24 97
-84 20 -46 23 -135 6 -162 -10 -16 -11 -9 -7 36 11 105 -31 180 -100 180 -22
0 -37 -6 -41 -16 -5 -13 -7 -13 -14 -2 -7 10 -9 10 -9 1 0 -7 -4 -13 -9 -13
-13 0 26 130 45 151 21 24 76 26 68 4z m-694 -5 c0 -12 -8 -12 -35 0 -18 8
-17 9 8 9 15 1 27 -3 27 -9z m170 -50 c0 -5 -4 -10 -10 -10 -5 0 -10 5 -10 10
0 6 5 10 10 10 6 0 10 -4 10 -10z m155 -8 c-6 -5 -95 -21 -200 -36 -104 -16
-217 -35 -250 -42 -33 -8 -68 -14 -77 -14 -31 0 -20 17 15 23 91 16 223 38
317 51 58 9 116 17 130 20 48 7 74 6 65 -2z m331 -150 c16 -11 44 -94 44 -129
0 -45 -33 -95 -80 -122 -42 -23 -51 -53 -18 -59 19 -4 85 51 93 79 4 11 9 18
12 16 9 -10 -30 -72 -72 -113 -27 -27 -61 -49 -94 -60 -28 -9 -54 -20 -57 -25
-17 -28 -94 10 -94 46 0 19 34 20 49 1 11 -13 62 -11 60 3 -3 26 -21 46 -49
56 -49 17 -52 37 -3 30 41 -6 70 6 59 24 -4 6 -17 9 -29 6 -30 -8 -67 19 -49
36 6 7 12 15 12 19 0 10 -64 9 -76 -1 -7 -6 -25 -9 -41 -7 -27 3 -28 6 -33 66
-4 46 -2 62 8 62 6 0 12 6 12 14 0 8 14 22 32 30 34 17 48 10 48 -26 0 -9 9
-20 20 -23 11 -3 21 -12 21 -18 1 -7 3 -22 4 -33 3 -28 13 -44 29 -44 8 0 19
-7 26 -15 16 -19 30 -19 30 -1 0 8 8 24 18 36 16 20 19 21 32 6 11 -15 11 -22
-3 -52 -21 -43 -21 -44 2 -44 10 0 33 13 50 29 24 22 31 38 31 66 0 47 -28 97
-51 90 -9 -3 -21 1 -28 8 -16 21 13 44 69 56 3 0 10 -3 16 -7z m-1486 -49 c0
-5 -5 -15 -10 -23 -8 -12 -10 -11 -10 8 0 12 5 22 10 22 6 0 10 -3 10 -7z
m715 -39 c15 -15 17 -15 35 1 18 16 20 16 26 1 12 -32 -6 -67 -42 -82 -62 -26
-93 -28 -114 -9 -29 26 -27 83 3 95 35 14 74 11 92 -6z m132 -10 c-3 -3 -12
-4 -19 -1 -8 3 -5 6 6 6 11 1 17 -2 13 -5z m-775 -166 c-21 -21 5 -48 46 -48
41 0 62 -14 62 -41 0 -14 -8 -16 -47 -11 -27 3 -67 13 -91 24 -24 10 -55 18
-68 18 -16 0 -24 6 -24 18 0 21 110 75 125 61 5 -6 5 -13 -3 -21z m1546 -84
c-10 -22 -13 -23 -27 -9 -14 13 -13 16 4 29 27 19 37 11 23 -20z m-1346 -142
c10 -35 -1 -52 -32 -52 -32 0 -53 20 -40 39 4 8 6 19 4 26 -3 7 7 11 28 11 26
-1 35 -6 40 -24z m-91 -152 c28 -16 23 -30 -6 -17 -14 7 -25 15 -25 20 0 10 8
9 31 -3z m-1 -135 c-19 -22 -88 -41 -102 -27 -6 6 -8 18 -5 26 5 12 21 16 63
16 49 0 55 -2 44 -15z m-335 -165 c3 -5 1 -10 -4 -10 -6 0 -11 5 -11 10 0 6 2
10 4 10 3 0 8 -4 11 -10z m113 -51 c22 -12 32 -14 32 -6 0 7 4 6 10 -3 5 -8
10 -34 10 -57 0 -35 -3 -43 -19 -43 -10 0 -35 -7 -54 -15 -49 -20 -186 -20
-213 0 -10 8 -31 15 -45 15 -35 0 -61 31 -57 67 3 25 8 29 53 37 28 5 70 14
95 21 56 17 144 9 188 -16z m1493 -31 c11 -21 11 -22 -4 -9 -10 7 -17 17 -17
22 0 15 9 10 21 -13z m-1405 -84 c4 -14 4 -45 0 -70 -3 -27 -2 -44 5 -44 5 0
21 -11 34 -25 33 -32 33 -77 0 -99 -30 -20 -48 -20 -136 0 -57 13 -72 20 -79
39 -9 25 -69 49 -96 38 -8 -3 -14 0 -14 6 0 17 -21 13 -35 -6 -14 -19 -35 -10
-35 15 0 12 21 28 60 46 l60 29 89 -13 c49 -7 97 -10 105 -7 12 5 16 21 16 62
0 57 15 74 26 29z m-796 -176 c-42 -35 -56 -36 -34 -3 19 30 45 46 58 37 5 -3
-6 -18 -24 -34z m210 -102 c0 -6 -70 -46 -80 -46 -19 0 3 29 28 39 29 10 52
13 52 7z m653 -26 c31 -24 42 -64 27 -99 -10 -24 -15 -26 -58 -24 -49 3 -89
18 -108 42 -9 11 -28 13 -88 8 -71 -6 -76 -5 -76 13 0 58 243 107 303 60z
m2107 -70 c0 -5 -2 -10 -4 -10 -3 0 -8 5 -11 10 -3 6 -1 10 4 10 6 0 11 -4 11
-10z m-2635 -54 c19 -14 19 -15 -6 -26 -21 -10 -32 -9 -58 4 -17 9 -31 21 -31
26 0 15 74 12 95 -4z m175 -201 c-13 -24 -43 -34 -54 -17 -8 14 51 56 63 46 2
-2 -2 -15 -9 -29z m44 -64 c18 -28 -46 -67 -96 -59 -21 4 -19 6 12 19 19 9 41
23 49 32 15 19 27 21 35 8z m0 -109 c-4 -26 -13 -59 -20 -73 -13 -27 -44 -47
-44 -29 0 6 3 10 8 10 4 0 13 9 20 20 10 17 9 25 -5 47 -17 25 -17 27 5 41 12
8 22 21 22 29 0 8 5 11 10 8 7 -4 8 -24 4 -53z m-54 -22 c0 -5 -2 -10 -4 -10
-3 0 -8 5 -11 10 -3 6 -1 10 4 10 6 0 11 -4 11 -10z m-526 -59 c-20 -45 -50
-68 -34 -26 13 34 42 77 47 71 3 -3 -3 -23 -13 -45z m412 -217 c-3 -9 -6 -25
-6 -37 0 -19 -2 -19 -15 7 -20 38 -19 46 6 46 15 0 19 -4 15 -16z m3814 -64
c0 -4 -7 -7 -15 -7 -10 0 -15 10 -15 26 1 25 1 25 15 7 8 -11 15 -23 15 -26z
m-4373 -156 c-3 -3 -12 -4 -19 -1 -8 3 -5 6 6 6 11 1 17 -2 13 -5z m2833 -214
c24 -24 26 -40 3 -40 -20 0 -53 28 -53 47 0 19 27 16 50 -7z m138 -22 c3 -15
-4 -18 -32 -18 -42 0 -49 -17 -9 -22 17 -2 29 -10 31 -21 3 -16 -2 -18 -30
-15 -24 2 -33 -1 -33 -12 0 -9 11 -16 30 -18 36 -4 53 -18 39 -32 -5 -5 -30
-6 -59 -2 l-50 7 3 60 c5 94 7 96 60 93 35 -2 48 -7 50 -20z m116 -20 c9 -12
16 -26 16 -30 0 -12 -28 -10 -50 4 -22 14 -25 12 -33 -23 -4 -16 -1 -33 8 -45
14 -18 16 -18 29 -1 19 24 36 21 36 -7 0 -38 -58 -50 -92 -19 -23 21 -25 104
-2 127 23 24 70 20 88 -6z m-269 -10 c35 -16 36 -73 1 -89 -39 -18 -76 -4 -76
28 0 21 3 24 12 15 14 -14 48 -16 48 -2 0 5 -9 14 -20 20 -23 12 -27 40 -5 40
8 0 26 -5 40 -12z m319 -53 c-4 -42 -3 -65 3 -65 13 0 23 34 23 77 0 33 14 51
25 33 10 -16 -7 -110 -24 -131 -21 -26 -47 -16 -54 21 -10 45 4 130 20 130 11
0 12 -13 7 -65z m135 24 c38 -14 51 -51 27 -78 -13 -14 -16 -28 -11 -55 11
-57 -26 -42 -40 17 -9 34 -25 36 -25 3 0 -27 -17 -43 -30 -30 -5 5 -3 42 3 82
12 78 16 82 76 61z m93 -24 c11 -11 -25 -155 -38 -155 -17 0 -17 3 -3 91 11
62 23 81 41 64z m123 -27 c25 -7 45 -17 45 -23 0 -5 4 -17 10 -25 7 -12 12
-11 30 5 15 13 23 16 31 8 8 -8 4 -21 -14 -45 -14 -18 -28 -48 -32 -65 -9 -46
-35 -44 -35 2 0 60 -22 115 -46 115 -18 0 -23 -10 -34 -60 -8 -38 -18 -60 -26
-60 -16 0 -17 12 -8 99 8 67 8 68 79 49z m1192 -390 c-3 -8 -6 -5 -6 6 -1 11
2 17 5 13 3 -3 4 -12 1 -19z m-5947 -568 c0 -5 -5 -10 -11 -10 -5 0 -7 5 -4
10 3 6 8 10 11 10 2 0 4 -4 4 -10z m35 -110 c3 -5 1 -10 -4 -10 -6 0 -11 5
-11 10 0 6 2 10 4 10 3 0 8 -4 11 -10z m-202 -667 c-13 -2 -33 -2 -45 0 -13 2
-3 4 22 4 25 0 35 -2 23 -4z m44 -149 c-3 -3 -12 -4 -19 -1 -8 3 -5 6 6 6 11
1 17 -2 13 -5z"/>
<path d="M4735 5800 c3 -5 10 -10 16 -10 5 0 9 5 9 10 0 6 -7 10 -16 10 -8 0
-12 -4 -9 -10z"/>
<path d="M4773 5755 c-9 -25 4 -29 17 -6 7 15 7 21 0 21 -6 0 -13 -7 -17 -15z"/>
<path d="M6840 2026 c0 -10 9 -16 21 -16 24 0 21 23 -4 28 -10 2 -17 -3 -17
-12z"/>
<path d="M1230 6370 c-13 -9 -12 -12 5 -26 28 -21 59 -14 63 14 3 18 -1 22
-25 22 -15 0 -35 -5 -43 -10z"/>
<path d="M2922 6369 c-27 -8 -32 -14 -27 -30 7 -20 16 -72 17 -98 1 -7 20 -21
44 -31 50 -22 58 -33 44 -59 -9 -19 -6 -20 42 -23 51 -3 52 -4 60 -38 10 -46
-5 -80 -47 -109 -33 -22 -35 -27 -35 -77 0 -30 4 -54 9 -54 5 0 11 -9 14 -21
5 -20 6 -20 49 7 24 15 61 42 83 61 65 55 68 58 115 93 25 19 65 54 90 78 42
40 44 45 27 57 -31 23 -216 29 -278 10 -42 -14 -124 96 -136 182 -5 42 -17 64
-33 62 -3 0 -20 -5 -38 -10z"/>
<path d="M3618 6335 c-8 -8 10 -96 23 -111 18 -22 64 -16 93 11 38 35 31 60
-16 60 -24 0 -45 8 -60 23 -25 23 -31 26 -40 17z"/>
<path d="M283 6275 c0 -22 2 -30 4 -17 2 12 2 30 0 40 -3 9 -5 -1 -4 -23z"/>
<path d="M9430 6271 c-16 -30 -12 -36 10 -16 21 19 26 35 10 35 -5 0 -14 -9
-20 -19z"/>
<path d="M2523 6224 c-14 -28 -15 -39 -5 -55 7 -10 8 -19 3 -19 -5 0 -18 -16
-30 -35 l-20 -35 22 0 c26 0 117 95 117 122 0 22 -34 58 -55 58 -9 0 -23 -16
-32 -36z"/>
<path d="M1450 6200 c0 -22 5 -40 10 -40 6 0 10 18 10 40 0 22 -4 40 -10 40
-5 0 -10 -18 -10 -40z"/>
<path d="M8726 6213 c-4 -9 -2 -21 4 -27 7 -7 10 -2 10 17 0 31 -5 34 -14 10z"/>
<path d="M284 6085 c0 -49 1 -71 3 -48 2 23 2 64 0 90 -2 26 -3 8 -3 -42z"/>
<path d="M3842 6118 c-7 -7 -12 -18 -12 -25 0 -7 -13 -19 -30 -28 -21 -11 -30
-23 -30 -40 0 -34 16 -31 56 9 24 24 34 43 34 65 0 35 -1 36 -18 19z"/>
<path d="M2438 6082 c-11 -2 -18 -13 -18 -28 0 -31 13 -31 30 1 15 28 13 33
-12 27z"/>
<path d="M1450 6059 c0 -11 5 -17 10 -14 6 3 10 13 10 21 0 8 -4 14 -10 14 -5
0 -10 -9 -10 -21z"/>
<path d="M5715 6060 c-22 -10 -45 -19 -52 -19 -6 -1 -24 -6 -40 -12 l-28 -11
25 -13 c14 -8 34 -14 46 -15 11 0 44 -12 72 -26 31 -15 63 -24 77 -22 14 3 26
0 29 -8 9 -23 28 -16 24 9 -2 17 -9 21 -29 19 -24 -3 -27 1 -32 38 -5 37 -30
81 -46 79 -3 0 -24 -9 -46 -19z"/>
<path d="M5401 6036 c-8 -9 -12 -18 -10 -20 10 -9 139 -17 139 -8 0 18 -27 32
-71 38 -35 5 -48 2 -58 -10z"/>
<path d="M7682 6034 c-33 -23 -49 -62 -50 -121 -1 -40 3 -53 14 -53 8 0 14 -6
14 -14 0 -8 5 -16 11 -18 10 -3 -50 -111 -70 -128 -17 -14 -40 -60 -32 -64 5
-3 23 -1 41 5 32 12 80 0 80 -19 0 -4 21 -5 48 -2 43 5 47 7 50 35 4 35 30 68
49 61 19 -7 27 13 15 37 -18 38 -32 89 -32 118 0 22 -5 29 -20 29 -12 0 -32 7
-46 16 -28 19 -25 44 8 81 12 12 18 29 15 37 -8 21 -66 21 -95 0z"/>
<path d="M5358 6003 c7 -3 16 -2 19 1 4 3 -2 6 -13 5 -11 0 -14 -3 -6 -6z"/>
<path d="M2421 5944 c0 -11 3 -14 6 -6 3 7 2 16 -1 19 -3 4 -6 -2 -5 -13z"/>
<path d="M3384 5936 c-39 -14 -64 -34 -64 -53 0 -25 47 -63 79 -63 36 0 44 19
31 75 -5 22 -9 42 -9 43 1 8 -8 8 -37 -2z"/>
<path d="M282 5890 c0 -14 2 -19 5 -12 2 6 2 18 0 25 -3 6 -5 1 -5 -13z"/>
<path d="M608 5858 c-28 -10 -28 -10 -28 -108 l0 -98 48 -15 c26 -9 57 -14 68
-11 12 3 27 -3 38 -15 16 -18 17 -24 6 -52 -7 -17 -30 -42 -52 -55 -60 -38
-49 -50 53 -61 l58 -6 15 38 c26 61 21 85 -29 140 -40 45 -45 55 -45 101 0 87
-72 163 -132 142z"/>
<path d="M3791 5841 c-12 -16 -21 -34 -21 -40 0 -5 -5 -21 -11 -35 -10 -22
-16 -24 -60 -20 -56 5 -60 -2 -29 -51 28 -45 77 -70 123 -61 37 7 37 8 31 45
-5 31 -1 48 20 83 31 54 32 62 6 88 -27 27 -35 25 -59 -9z"/>
<path d="M9428 5778 c-2 -7 -1 -35 3 -63 l6 -50 1 63 c2 59 -1 76 -10 50z"/>
<path d="M1361 5600 c-7 -30 -19 -65 -27 -77 -19 -30 -18 -44 4 -41 14 2 16
-3 14 -28 -2 -21 2 -33 13 -37 12 -5 15 2 15 36 0 23 3 65 6 92 2 28 1 64 -4
80 -8 29 -9 29 -21 -25z"/>
<path d="M2464 5565 c-49 -50 -62 -106 -48 -222 l7 -52 56 -11 c31 -6 77 -18
103 -26 36 -12 56 -13 85 -5 21 6 50 9 63 6 47 -9 106 53 78 82 -11 11 -21 11
-42 3 -41 -15 -71 -12 -116 11 -52 27 -60 44 -54 110 5 59 4 62 -44 102 -41
33 -56 34 -88 2z"/>
<path d="M7205 5490 c-12 -4 -27 -15 -34 -24 -18 -21 -37 -20 -68 4 -27 21
-68 27 -78 10 -3 -5 -25 -15 -48 -21 -51 -13 -67 -25 -67 -50 0 -11 -4 -19
-10 -19 -5 0 -10 -7 -10 -15 0 -9 -11 -27 -25 -40 -15 -13 -29 -39 -32 -61 -3
-21 -12 -49 -19 -62 -7 -14 -10 -31 -7 -38 3 -8 -5 -18 -21 -24 -14 -5 -26
-17 -26 -25 0 -26 29 -29 55 -5 23 21 31 23 104 17 76 -6 80 -5 106 21 50 50
59 103 20 120 -22 10 -25 18 -25 62 0 41 4 52 24 65 15 10 33 14 49 10 14 -4
28 -2 32 4 4 8 12 8 26 0 16 -8 19 -17 14 -38 -4 -21 0 -33 20 -54 26 -25 27
-25 46 -6 17 17 51 25 88 19 8 -1 29 -12 46 -26 36 -27 55 -18 55 28 0 36 -48
89 -115 128 -55 31 -67 34 -100 20z"/>
<path d="M292 5420 c0 -14 2 -19 5 -12 2 6 2 18 0 25 -3 6 -5 1 -5 -13z"/>
<path d="M3265 5410 c-58 -32 -95 -68 -95 -90 0 -9 9 -43 20 -76 15 -43 38
-77 85 -129 44 -48 65 -65 69 -55 14 45 14 72 2 121 -17 67 -31 183 -27 227 1
17 1 32 -1 31 -2 -1 -25 -14 -53 -29z"/>
<path d="M7795 5373 c-33 -36 -32 -53 6 -84 31 -25 31 -26 20 -78 -16 -73 -46
-114 -79 -108 -31 6 -52 -1 -52 -17 0 -6 -13 -20 -30 -29 -16 -10 -30 -22 -30
-27 0 -18 -74 -96 -114 -120 -66 -39 -74 -47 -68 -78 4 -24 3 -25 -9 -11 -38
43 -183 99 -256 99 -62 0 -72 -12 -77 -91 -1 -28 -8 -54 -13 -57 -6 -4 -28
-43 -49 -87 -49 -103 -51 -148 -11 -232 41 -86 52 -84 93 12 28 65 72 97 117
85 17 -5 55 -11 83 -14 44 -5 58 -12 98 -51 25 -25 46 -55 46 -66 0 -11 11
-24 25 -31 14 -6 32 -22 40 -35 16 -24 39 -30 50 -13 3 5 -3 18 -14 29 -56 56
-45 101 26 101 23 0 66 9 94 20 50 20 52 20 71 3 27 -24 21 -89 -15 -167 -24
-52 -29 -57 -54 -54 -18 2 -28 -2 -27 -9 4 -46 2 -45 34 -28 37 19 61 19 86 0
19 -14 19 -15 -3 -21 -26 -7 -30 -36 -9 -73 9 -16 12 -44 9 -80 -5 -62 9 -111
32 -111 20 0 28 39 21 97 -18 134 -20 184 -12 219 5 21 10 190 12 374 1 184 5
400 9 480 9 174 9 162 0 228 -4 28 -11 52 -16 52 -4 0 -20 -12 -34 -27z m-135
-613 c9 -5 19 -5 26 1 8 7 14 6 19 -1 9 -14 -23 -39 -51 -40 -29 0 -48 22 -32
38 14 14 19 15 38 2z"/>
<path d="M582 5163 l3 -198 46 -5 c56 -7 124 -49 147 -92 10 -17 34 -49 54
-72 21 -22 38 -45 38 -49 0 -4 16 -15 35 -23 32 -13 38 -13 74 6 22 11 58 22
80 26 34 5 41 10 41 29 0 12 -17 41 -37 65 -29 32 -46 43 -73 45 -34 3 -35 4
-32 39 3 36 2 37 -63 66 -56 25 -66 33 -63 52 2 15 13 26 33 32 52 15 105 39
115 51 13 15 -14 95 -37 113 -18 13 -82 16 -120 6 -19 -5 -22 -11 -17 -33 3
-14 15 -38 25 -53 37 -53 19 -88 -46 -88 -34 0 -47 6 -77 38 -39 40 -46 61
-35 106 6 22 12 27 27 23 11 -3 20 -1 20 3 0 5 2 14 5 22 4 10 -6 12 -44 10
-49 -4 -50 -3 -64 31 -33 77 -38 55 -35 -150z"/>
<path d="M9056 5325 c-3 -9 0 -15 9 -15 8 0 15 7 15 15 0 8 -4 15 -9 15 -5 0
-11 -7 -15 -15z"/>
<path d="M7548 5317 c-9 -7 -16 -21 -15 -32 2 -14 -8 -21 -43 -30 -40 -10 -45
-14 -48 -42 -2 -24 3 -35 23 -50 15 -10 43 -33 63 -51 20 -18 41 -31 47 -29 6
2 10 46 10 108 1 57 3 110 5 118 6 19 -21 24 -42 8z"/>
<path d="M80 5245 c0 -8 -6 -15 -14 -15 -33 0 -46 -41 -46 -141 0 -127 7 -161
30 -149 9 5 29 11 45 14 15 3 28 6 29 8 0 2 7 13 14 25 17 31 15 46 -10 95
-14 26 -24 63 -24 93 -1 28 -2 58 -3 68 -1 21 -21 23 -21 2z"/>
<path d="M287 5240 c-3 -11 -1 -23 4 -26 5 -3 9 6 9 20 0 31 -6 34 -13 6z"/>
<path d="M1341 5155 c-37 -55 -38 -65 -8 -93 45 -42 57 -31 57 52 0 41 -4 77
-9 81 -5 3 -23 -15 -40 -40z"/>
<path d="M7190 5180 c0 -5 4 -10 9 -10 6 0 13 5 16 10 3 6 -1 10 -9 10 -9 0
-16 -4 -16 -10z"/>
<path d="M7242 5177 c-10 -12 -4 -20 29 -42 49 -32 119 -46 119 -23 0 21 -41
54 -75 61 -16 3 -37 8 -46 12 -9 3 -21 0 -27 -8z"/>
<path d="M2755 5123 c-14 -111 -40 -157 -99 -177 -42 -14 -92 -7 -130 20 -18
12 -18 14 10 24 75 30 79 34 79 75 l0 40 -60 6 c-33 4 -77 10 -97 14 l-38 8 0
-202 c0 -151 3 -201 12 -201 7 0 32 7 56 16 43 17 43 17 103 -14 l61 -31 36
18 c54 27 99 33 115 16 8 -8 17 -11 20 -8 3 3 9 -7 13 -22 6 -23 10 -26 33
-20 38 10 39 14 10 38 -35 30 -54 79 -40 106 6 11 42 39 80 61 87 52 119 85
105 107 -6 9 -38 31 -71 47 -33 17 -84 52 -113 79 -29 26 -58 47 -65 47 -9 0
-16 -18 -20 -47z"/>
<path d="M3248 4971 c-42 -23 -48 -30 -48 -58 0 -17 5 -35 11 -38 14 -9 57 32
80 77 30 58 28 59 -43 19z"/>
<path d="M185 4890 c-6 -25 -2 -37 16 -56 30 -32 39 -30 38 9 0 34 -17 84 -19
57 0 -12 -3 -11 -14 3 -13 17 -15 16 -21 -13z"/>
<path d="M1376 4898 c-3 -13 -1 -27 4 -32 7 -7 10 1 10 22 0 37 -5 41 -14 10z"/>
<path d="M8372 4895 c0 -16 2 -22 5 -12 2 9 2 23 0 30 -3 6 -5 -1 -5 -18z"/>
<path d="M1370 4740 c0 -5 -13 -10 -29 -10 -39 0 -61 -9 -61 -26 0 -19 20 -18
34 2 9 12 17 13 39 5 25 -10 27 -9 27 14 0 14 -2 25 -5 25 -3 0 -5 -4 -5 -10z"/>
<path d="M3178 4699 c-22 -12 -23 -31 -3 -69 15 -30 43 -38 79 -24 18 7 21 40
6 78 -10 28 -49 35 -82 15z"/>
<path d="M9053 4655 c0 -22 2 -30 4 -17 2 12 2 30 0 40 -3 9 -5 -1 -4 -23z"/>
<path d="M782 4653 c-13 -14 -21 -30 -19 -36 7 -22 109 -69 135 -62 31 8 95
70 90 87 -3 7 -31 16 -64 20 -32 4 -73 9 -89 12 -24 3 -36 -2 -53 -21z"/>
<path d="M6716 4623 c-7 -16 -17 -42 -21 -60 -6 -29 -4 -33 20 -39 14 -3 49
-7 78 -8 47 -1 52 1 55 22 3 21 -19 49 -76 95 -30 23 -39 22 -56 -10z"/>
<path d="M3674 4602 c-26 -40 -22 -81 10 -109 53 -45 72 -26 62 61 -6 43 -12
55 -31 64 -20 9 -26 7 -41 -16z"/>
<path d="M30 4590 c0 -13 7 -20 20 -20 13 0 20 7 20 20 0 13 -7 20 -20 20 -13
0 -20 -7 -20 -20z"/>
<path d="M9396 4585 c-3 -8 0 -28 6 -43 l11 -27 8 28 c12 43 -10 81 -25 42z"/>
<path d="M3090 4515 c-18 -22 -7 -40 33 -52 39 -12 47 -9 47 18 0 40 -55 64
-80 34z"/>
<path d="M7392 4357 c-18 -21 5 -251 30 -300 17 -34 23 -38 46 -33 15 4 47 11
72 17 85 18 107 34 112 81 3 24 4 44 4 45 -1 1 -37 -4 -80 -12 -73 -12 -82
-12 -122 6 -43 18 -54 35 -35 55 5 5 11 40 13 79 2 57 0 70 -13 73 -9 1 -21
-3 -27 -11z"/>
<path d="M3833 4339 c-13 -5 -23 -17 -23 -28 0 -10 20 -71 45 -135 49 -127 53
-146 30 -146 -25 0 -55 -38 -55 -70 0 -24 24 -104 36 -119 2 -2 21 15 43 38
29 31 46 41 70 41 17 0 57 13 89 29 31 16 86 36 121 45 36 9 67 18 69 21 2 2
-1 20 -8 39 -9 29 -17 36 -38 37 -15 0 -21 3 -14 6 20 8 3 23 -26 23 -15 0
-57 -11 -94 -24 -81 -30 -107 -30 -100 -2 4 14 2 17 -8 11 -9 -5 -11 -4 -6 4
9 14 -71 205 -93 225 -11 9 -23 11 -38 5z m45 -27 c2 -7 -2 -10 -12 -6 -9 3
-16 11 -16 16 0 13 23 5 28 -10z"/>
<path d="M9412 4300 c0 -19 2 -27 5 -17 2 9 2 25 0 35 -3 9 -5 1 -5 -18z"/>
<path d="M8354 4066 c-3 -19 -1 -43 5 -53 8 -14 10 -8 11 35 0 60 -6 67 -16
18z"/>
<path d="M9041 4054 c0 -11 3 -14 6 -6 3 7 2 16 -1 19 -3 4 -6 -2 -5 -13z"/>
<path d="M6450 4056 c0 -2 7 -7 16 -10 8 -3 12 -2 9 4 -6 10 -25 14 -25 6z"/>
<path d="M6520 4020 c0 -6 7 -10 15 -10 8 0 15 2 15 4 0 2 -7 6 -15 10 -8 3
-15 1 -15 -4z"/>
<path d="M295 4000 c-3 -5 -1 -10 4 -10 6 0 11 5 11 10 0 6 -2 10 -4 10 -3 0
-8 -4 -11 -10z"/>
<path d="M9036 3991 c-4 -7 -5 -15 -2 -18 9 -9 19 4 14 18 -4 11 -6 11 -12 0z"/>
<path d="M8693 3930 c0 -25 2 -35 4 -22 2 12 2 32 0 45 -2 12 -4 2 -4 -23z"/>
<path d="M1460 3930 c0 -5 5 -10 11 -10 5 0 7 5 4 10 -3 6 -8 10 -11 10 -2 0
-4 -4 -4 -10z"/>
<path d="M8005 3888 c-9 -23 -2 -61 13 -66 14 -4 15 31 2 63 -7 18 -9 18 -15
3z"/>
<path d="M1460 3814 c0 -14 4 -23 9 -20 5 3 7 15 4 26 -7 28 -13 25 -13 -6z"/>
<path d="M7666 3764 c-17 -16 -21 -46 -8 -58 4 -4 7 -16 7 -27 0 -23 7 -24 73
-8 46 11 52 15 52 38 0 37 -11 50 -51 61 -46 13 -55 13 -73 -6z"/>
<path d="M8010 3688 c0 -50 2 -89 4 -87 9 10 14 179 6 179 -6 0 -10 -40 -10
-92z"/>
<path d="M1460 3749 c0 -5 5 -7 10 -4 6 3 10 8 10 11 0 2 -4 4 -10 4 -5 0 -10
-5 -10 -11z"/>
<path d="M8693 3600 c0 -25 2 -35 4 -22 2 12 2 32 0 45 -2 12 -4 2 -4 -23z"/>
<path d="M7797 3603 c-10 -9 -9 -43 1 -43 12 0 32 23 32 37 0 14 -22 18 -33 6z"/>
<path d="M2905 3576 c-13 -20 -14 -32 -5 -65 6 -22 15 -43 21 -47 6 -3 14 -17
20 -31 l9 -24 40 22 c45 26 53 40 40 73 -14 37 -70 96 -91 96 -10 0 -26 -11
-34 -24z"/>
<path d="M9030 3561 c0 -6 5 -13 10 -16 6 -3 10 1 10 9 0 9 -4 16 -10 16 -5 0
-10 -4 -10 -9z"/>
<path d="M8693 3475 c0 -33 2 -45 4 -27 2 18 2 45 0 60 -2 15 -4 0 -4 -33z"/>
<path d="M7995 3498 c-8 -21 0 -48 15 -48 12 0 12 17 0 45 -7 18 -8 19 -15 3z"/>
<path d="M8350 3415 c0 -85 16 -102 22 -22 4 64 0 97 -13 97 -5 0 -9 -34 -9
-75z"/>
<path d="M8006 3432 c-2 -4 -1 -14 5 -22 7 -12 9 -10 9 8 0 23 -5 28 -14 14z"/>
<path d="M298 3330 c2 -22 6 -40 8 -40 2 0 4 18 4 40 0 22 -3 40 -8 40 -4 0
-6 -18 -4 -40z"/>
<path d="M2904 3320 c-36 -14 -37 -39 -3 -69 17 -16 26 -30 20 -32 -8 -3 -4
-13 9 -27 16 -16 28 -21 43 -16 31 9 37 22 33 73 -5 66 -45 94 -102 71z m76
-114 c0 -2 -7 -7 -16 -10 -8 -3 -12 -2 -9 4 6 10 25 14 25 6z"/>
<path d="M9389 3215 c-2 -101 -3 -105 -13 -133 -6 -19 -10 -21 -22 -11 -12 10
-18 9 -31 -4 -21 -21 -10 -47 21 -47 34 0 46 -26 45 -100 -1 -34 4 -67 10 -73
14 -14 13 -25 12 216 0 110 -5 206 -11 215 -7 12 -10 -5 -11 -63z"/>
<path d="M9032 3245 c0 -16 2 -22 5 -12 2 9 2 23 0 30 -3 6 -5 -1 -5 -18z"/>
<path d="M1460 3175 c0 -27 2 -46 5 -43 8 8 9 77 2 85 -4 3 -7 -15 -7 -42z"/>
<path d="M1640 3179 c0 -11 4 -18 10 -14 5 3 7 12 3 20 -7 21 -13 19 -13 -6z"/>
<path d="M9025 3074 c-9 -88 -15 -110 -24 -95 -9 15 -21 -7 -21 -40 0 -22 27
-15 33 9 3 10 5 6 6 -10 1 -34 -8 -60 -20 -52 -5 3 -9 -13 -9 -36 0 -23 4 -39
9 -36 13 8 21 -18 10 -35 -7 -12 -9 -12 -10 1 0 8 -7 1 -15 -17 -7 -18 -11
-40 -7 -49 6 -15 7 -15 20 1 11 16 12 0 9 -106 -2 -95 0 -131 12 -153 21 -43
10 -128 -24 -179 -25 -38 -27 -49 -25 -129 1 -53 -3 -95 -10 -106 -7 -12 -9
-27 -4 -38 4 -11 10 -32 12 -48 3 -16 11 -35 19 -43 8 -8 14 -22 14 -31 -1
-13 -4 -11 -14 6 l-13 24 -17 -26 c-12 -19 -14 -31 -7 -44 7 -12 5 -22 -6 -34
-15 -16 -15 -20 0 -36 19 -20 12 -102 -8 -102 -7 0 -15 -10 -19 -22 -9 -34 -8
-36 14 -40 15 -2 17 -7 10 -18 -9 -13 -11 -13 -20 0 -8 12 -10 12 -10 -5 0
-11 9 -31 20 -45 21 -27 27 -75 10 -85 -14 -8 -13 -78 1 -109 9 -20 9 -29 0
-40 -7 -8 -9 -21 -5 -27 14 -23 13 -371 -1 -413 -12 -33 -12 -41 1 -54 21 -20
14 -55 -13 -67 -33 -14 -33 -72 -1 -77 26 -3 35 -32 37 -111 1 -34 -3 -49 -14
-53 -21 -8 -19 -27 5 -41 17 -11 19 -22 15 -109 -2 -53 1 -108 6 -122 5 -14 6
-28 2 -31 -5 -3 -9 -45 -10 -93 l-2 -88 58 0 59 0 1 178 c3 226 3 232 -9 325
-7 59 -7 85 3 102 9 18 10 51 4 127 -16 216 -16 227 -2 242 10 9 12 26 8 50
-4 27 -2 36 8 36 8 0 27 15 43 32 28 32 28 33 10 65 -9 18 -21 33 -25 33 -4 0
-5 8 -3 18 5 20 -3 33 -31 48 -11 6 -22 19 -24 30 -4 21 19 125 31 138 13 16
9 29 -6 23 -27 -10 -37 17 -26 66 5 25 7 59 4 74 -4 20 -1 33 10 42 20 16 21
41 2 41 -20 0 -25 116 -25 591 0 244 -4 424 -10 452 -8 33 -8 53 0 71 8 17 9
37 2 63 -5 21 -6 52 -2 68 10 45 10 168 0 184 -6 10 -11 -5 -16 -45z m75
-1868 c0 -8 -4 -17 -9 -21 -12 -7 -24 12 -16 25 9 15 25 12 25 -4z"/>
<path d="M3637 3075 c-20 -14 -37 -28 -37 -30 0 -6 69 36 76 46 8 14 2 11 -39
-16z"/>
<path d="M1462 3030 c0 -14 2 -19 5 -12 2 6 2 18 0 25 -3 6 -5 1 -5 -13z"/>
<path d="M3515 2995 c-16 -14 -25 -25 -20 -25 6 0 24 11 40 25 17 13 26 24 20
24 -5 0 -23 -11 -40 -24z"/>
<path d="M1462 2955 c0 -16 2 -22 5 -12 2 9 2 23 0 30 -3 6 -5 -1 -5 -18z"/>
<path d="M3487 2919 c-59 -42 -69 -53 -39 -42 28 11 102 63 102 73 0 14 1 14
-63 -31z"/>
<path d="M6210 2931 c0 -6 4 -13 10 -16 6 -3 7 1 4 9 -7 18 -14 21 -14 7z"/>
<path d="M261 2844 c0 -11 3 -14 6 -6 3 7 2 16 -1 19 -3 4 -6 -2 -5 -13z"/>
<path d="M1461 2844 c0 -11 3 -14 6 -6 3 7 2 16 -1 19 -3 4 -6 -2 -5 -13z"/>
<path d="M1457 2778 c-3 -12 -2 -29 3 -37 7 -12 9 -6 10 22 0 42 -5 48 -13 15z"/>
<path d="M9396 2764 c-10 -27 -7 -174 4 -174 6 0 10 28 9 68 -1 37 1 77 5 89
8 25 -9 41 -18 17z"/>
<path d="M9235 2608 c-14 -44 -23 -91 -19 -102 6 -16 52 -38 63 -31 5 2 11 23
14 47 4 32 1 48 -14 70 -22 30 -37 36 -44 16z"/>
<path d="M1453 2475 c2 -74 7 -138 10 -142 4 -3 7 57 7 135 0 90 -4 142 -10
142 -7 0 -9 -48 -7 -135z"/>
<path d="M8974 2526 c-3 -8 -1 -23 5 -33 9 -16 10 -16 11 -1 0 9 3 23 6 32 3
9 1 16 -5 16 -7 0 -14 -6 -17 -14z"/>
<path d="M9385 2458 c-9 -53 -9 -90 0 -146 4 -25 3 -48 -3 -55 -9 -11 -9 -205
1 -330 3 -47 -8 -56 -33 -27 -27 31 -39 17 -35 -36 3 -38 2 -44 -11 -33 -9 7
-14 8 -14 1 0 -6 14 -20 30 -32 17 -12 30 -28 30 -36 0 -8 5 -14 10 -14 6 0
10 -26 10 -57 0 -73 9 -89 40 -73 18 10 21 17 16 45 -4 18 -2 43 3 56 5 14 5
34 0 47 -7 19 -23 449 -20 536 1 15 -3 33 -8 40 -5 6 -5 32 -1 61 12 67 12 95
1 95 -4 0 -12 -19 -16 -42z"/>
<path d="M292 2465 c0 -16 2 -22 5 -12 2 9 2 23 0 30 -3 6 -5 -1 -5 -18z"/>
<path d="M291 2354 c0 -11 3 -14 6 -6 3 7 2 16 -1 19 -3 4 -6 -2 -5 -13z"/>
<path d="M292 2300 c0 -14 2 -19 5 -12 2 6 2 18 0 25 -3 6 -5 1 -5 -13z"/>
<path d="M1460 2301 c0 -8 -6 -11 -16 -7 -12 4 -14 1 -9 -14 4 -11 0 -29 -9
-42 -18 -25 -21 -74 -6 -83 6 -3 10 -1 10 4 0 19 18 12 23 -10 6 -24 27 -17
27 9 0 9 -7 25 -14 34 -9 13 -11 32 -6 65 5 27 6 50 4 52 -2 2 -4 -1 -4 -8z"/>
<path d="M285 2241 c-3 -5 -1 -12 5 -16 5 -3 10 1 10 9 0 18 -6 21 -15 7z"/>
<path d="M9330 2196 c0 -14 5 -26 10 -26 6 0 10 9 10 19 0 11 -4 23 -10 26 -6
4 -10 -5 -10 -19z"/>
<path d="M277 2169 c-3 -12 -1 -31 4 -41 6 -10 7 -28 4 -38 -4 -12 -2 -20 4
-20 13 0 15 89 2 108 -6 10 -10 8 -14 -9z"/>
<path d="M1641 2114 c0 -11 3 -14 6 -6 3 7 2 16 -1 19 -3 4 -6 -2 -5 -13z"/>
<path d="M9317 2123 c-2 -4 -7 -20 -10 -34 -6 -22 -3 -25 16 -24 17 1 22 8 22
30 0 27 -18 45 -28 28z"/>
<path d="M1421 2076 c-1 -49 6 -58 14 -17 2 12 0 32 -5 44 -7 17 -9 12 -9 -27z"/>
<path d="M1457 2113 c-11 -10 -8 -53 3 -53 6 0 10 14 10 30 0 31 -2 35 -13 23z"/>
<path d="M1463 2015 c0 -22 2 -30 4 -17 2 12 2 30 0 40 -3 9 -5 -1 -4 -23z"/>
<path d="M180 2017 c-14 -6 -28 -17 -32 -23 -4 -6 -25 -15 -45 -18 -74 -13
-73 -13 -73 -71 0 -31 6 -59 13 -67 44 -43 46 -80 10 -133 l-28 -40 -3 -350
c-2 -192 -1 -359 2 -370 3 -12 41 -59 86 -105 44 -47 80 -88 80 -92 0 -5 4 -8
9 -8 5 0 12 28 15 63 8 95 15 284 9 270 -7 -19 -30 -16 -38 4 -4 12 2 25 19
40 25 22 26 25 26 152 0 88 4 131 11 133 8 3 9 10 3 23 -13 29 -11 147 2 152
12 4 37 -51 27 -60 -2 -3 -7 -52 -10 -109 -5 -108 -5 -112 -2 -168 1 -19 1
-57 0 -85 -4 -72 -2 -85 9 -85 6 0 11 15 11 33 6 372 10 597 13 660 2 42 0 77
-5 77 -5 0 -9 -15 -9 -34 0 -19 -5 -38 -10 -41 -6 -4 -10 -14 -9 -23 3 -29 -1
-42 -11 -42 -6 0 -10 53 -10 140 0 84 -5 149 -12 165 -13 28 -13 28 -48 12z
m67 -414 c-3 -10 -5 -2 -5 17 0 19 2 27 5 18 2 -10 2 -26 0 -35z"/>
<path d="M280 2005 c0 -14 5 -25 10 -25 6 0 10 11 10 25 0 14 -4 25 -10 25 -5
0 -10 -11 -10 -25z"/>
<path d="M832 1980 c-24 -11 -77 -54 -120 -98 -42 -43 -91 -87 -109 -97 -40
-23 -42 -36 -44 -260 0 -99 -5 -304 -10 -455 -6 -151 -12 -390 -15 -530 -3
-140 -6 -315 -7 -387 l-3 -133 73 0 c42 0 73 4 73 10 0 6 -4 10 -8 10 -4 0
-21 18 -38 40 -36 46 -36 96 0 110 20 8 20 9 -4 9 -21 1 -23 3 -10 16 16 15
60 10 60 -6 0 -5 11 -9 25 -9 31 0 105 -47 105 -66 0 -8 5 -14 10 -14 6 0 10
-13 10 -30 0 -17 9 -39 20 -50 19 -19 33 -20 206 -20 l185 0 -7 23 c-9 29 -24
47 -40 47 -19 0 -27 19 -15 33 8 10 2 12 -24 9 -27 -3 -35 -1 -35 12 0 9 -8
16 -17 16 -17 1 -17 2 -2 13 9 7 18 21 20 32 7 32 112 75 186 75 36 0 42 4 57
34 9 19 16 40 16 48 1 8 4 7 11 -4 6 -12 7 -30 0 -53 -12 -44 0 -91 22 -89 20
2 23 -12 5 -18 -9 -3 -14 -34 -16 -91 l-4 -87 46 0 c43 0 46 2 46 26 0 15 -7
32 -15 38 -13 9 -15 48 -14 256 0 135 2 299 4 365 6 296 5 1056 -2 1079 -5 19
-6 19 -24 -3 -22 -26 -25 -62 -6 -59 7 2 11 -6 9 -22 -5 -35 -26 -55 -49 -45
-10 5 -33 10 -51 12 -19 2 -41 10 -49 18 -8 8 -21 15 -28 15 -20 0 -65 22 -65
31 0 5 -11 25 -25 45 -19 28 -22 40 -14 50 16 19 1 70 -24 81 -12 6 -42 16
-67 23 -24 7 -60 25 -79 41 -43 35 -86 37 -149 9z m580 -474 c-1 -47 -3 -95
-7 -105 -3 -11 1 -36 10 -56 17 -43 20 -75 5 -75 -5 0 -10 -9 -10 -19 0 -11 5
-23 10 -26 17 -10 12 -115 -5 -121 -9 -4 -15 -16 -14 -28 5 -51 -2 -107 -11
-101 -12 7 -13 241 -3 478 4 97 10 154 15 149 6 -6 10 -49 10 -96z m-478 -72
c9 -3 16 -12 16 -19 0 -7 22 -21 49 -30 55 -18 57 -31 12 -58 -34 -20 -86 -22
-101 -4 -61 72 -71 93 -53 110 8 9 56 9 77 1z m326 -143 c15 -29 2 -53 -24
-45 -11 3 -27 13 -34 23 -11 14 -9 18 15 28 15 7 29 12 30 13 1 0 7 -9 13 -19z
m165 -400 c1 -39 -2 -71 -6 -71 -5 0 -9 18 -9 40 0 23 -5 40 -11 40 -8 0 -10
-20 -5 -67 3 -40 2 -74 -4 -83 -7 -10 -10 15 -10 84 0 86 2 97 15 86 13 -11
15 -8 15 20 0 62 12 22 15 -49z m-24 -236 c-1 -33 -5 -64 -8 -69 -3 -5 -5 -43
-4 -85 1 -42 0 -73 -4 -69 -9 9 -15 184 -8 241 8 69 27 54 24 -18z m19 -126
c0 -5 -4 -9 -10 -9 -5 0 -10 7 -10 16 0 8 5 12 10 9 6 -3 10 -10 10 -16z m0
-129 c0 -11 -4 -20 -10 -20 -5 0 -10 9 -10 20 0 11 5 20 10 20 6 0 10 -9 10
-20z m-10 -141 c0 -11 -4 -18 -10 -14 -5 3 -7 12 -3 20 7 21 13 19 13 -6z m-3
-206 c-3 -10 -5 -2 -5 17 0 19 2 27 5 18 2 -10 2 -26 0 -35z"/>
<path d="M1421 1984 c0 -11 3 -14 6 -6 3 7 2 16 -1 19 -3 4 -6 -2 -5 -13z"/>
<path d="M9315 1970 c4 -6 11 -8 16 -5 14 9 11 15 -7 15 -8 0 -12 -5 -9 -10z"/>
<path d="M1447 1948 c-3 -12 -2 -29 3 -37 7 -12 9 -6 10 22 0 42 -5 48 -13 15z"/>
<path d="M8459 1777 c-2 -30 2 -61 8 -67 8 -8 23 24 23 51 0 34 -29 49 -31 16z"/>
<path d="M9502 1750 c-12 -12 -22 -25 -22 -30 0 -13 51 -50 61 -44 5 3 29 2
54 -2 l45 -6 0 -49 c0 -27 -4 -49 -10 -49 -5 0 -10 -7 -10 -15 0 -10 -11 -15
-35 -15 -19 0 -35 -4 -35 -10 0 -5 -7 -10 -15 -10 -21 0 -19 -13 10 -44 14
-15 35 -26 50 -26 23 0 25 -3 25 -51 0 -31 6 -56 15 -65 13 -14 15 9 15 201
l0 216 -22 -15 c-30 -21 -37 -20 -48 9 -12 31 -47 33 -78 5z"/>
<path d="M2404 1655 c0 -55 1 -76 3 -47 2 29 2 74 0 100 -2 26 -3 2 -3 -53z"/>
<path d="M9256 1728 c-9 -12 -13 -31 -10 -44 3 -13 -1 -33 -10 -46 -23 -32
-21 -39 24 -89 22 -24 43 -55 46 -68 7 -24 -19 -91 -34 -91 -10 0 -38 -61 -46
-102 -3 -15 -2 -38 4 -52 5 -14 6 -26 2 -26 -4 0 -15 -13 -25 -28 -16 -28 -15
-30 3 -50 11 -12 20 -29 20 -38 0 -11 5 -14 16 -10 19 7 64 -3 64 -15 0 -4
-13 -28 -30 -52 -16 -25 -30 -50 -30 -56 0 -11 -39 -118 -65 -178 -11 -25 -19
-31 -32 -26 -14 5 -12 -2 9 -29 17 -22 25 -43 22 -53 -4 -9 1 -34 11 -56 15
-32 16 -44 7 -65 -7 -14 -12 -38 -12 -53 0 -16 -7 -42 -15 -57 -21 -41 -19
-59 10 -74 20 -10 28 -11 37 -2 17 17 40 15 65 -5 l21 -17 -25 -13 c-14 -7
-30 -13 -35 -13 -5 0 -21 -14 -35 -31 -14 -16 -32 -28 -39 -25 -7 3 -16 -3
-19 -14 -3 -10 -12 -21 -20 -24 -18 -6 -20 -32 -4 -42 6 -3 16 -1 22 5 18 18
22 13 23 -31 0 -34 6 -46 35 -70 70 -60 97 -68 231 -68 122 1 123 1 101 19
-13 11 -23 25 -23 33 1 21 54 93 72 96 23 4 11 -37 -12 -46 -17 -6 -17 -11 -5
-46 8 -22 12 -43 9 -48 -3 -4 11 -8 30 -8 l36 0 0 638 -1 637 -24 -30 c-29
-35 -30 -41 -10 -61 21 -22 19 -31 -12 -46 -36 -17 -42 -45 -11 -50 27 -4 36
-39 18 -74 -9 -16 -10 -30 -2 -53 8 -22 7 -37 -1 -55 -14 -29 -31 -32 -67 -11
-51 29 -54 13 -7 -39 18 -20 41 -36 50 -36 9 0 19 -5 22 -10 4 -6 -5 -10 -21
-10 -24 0 -26 -2 -19 -27 4 -16 8 -49 9 -75 0 -26 7 -53 14 -59 29 -30 2 -119
-37 -119 -10 0 -30 11 -45 25 -26 24 -26 26 -11 54 20 40 20 41 -13 41 -35 0
-41 6 -35 31 4 14 14 19 39 19 18 0 35 4 39 9 7 12 -25 30 -42 24 -6 -2 -17
13 -24 34 -6 20 -18 44 -26 51 -10 11 -12 29 -7 76 8 67 16 79 56 70 35 -7 45
12 19 40 -12 12 -21 34 -21 49 0 17 -5 27 -15 27 -8 0 -21 13 -30 29 -11 23
-12 36 -4 60 11 31 12 31 60 25 48 -7 49 -6 49 21 0 15 -8 34 -17 41 -23 17
-34 18 -28 2 7 -20 -8 -37 -35 -40 l-25 -3 -2 175 c-2 157 -4 175 -20 181 -10
4 -24 2 -31 -4 -20 -16 -40 19 -33 56 4 17 2 50 -4 74 -9 40 -12 43 -42 43
-21 0 -37 -7 -47 -22z m124 -487 c0 -16 -6 -34 -14 -40 -11 -9 -15 -6 -19 16
-6 33 1 53 19 53 9 0 14 -11 14 -29z m85 -192 c0 -15 -7 -25 -18 -27 -22 -4
-33 24 -17 43 18 21 35 13 35 -16z m-100 -229 c-5 -8 -11 -8 -17 -2 -6 6 -7
16 -3 22 5 8 11 8 17 2 6 -6 7 -16 3 -22z m0 -395 c4 -19 1 -37 -9 -50 -14
-19 -15 -16 -16 40 0 61 14 67 25 10z m105 10 c13 -15 19 -87 10 -115 -4 -11
4 -16 25 -18 26 -2 32 2 42 27 9 24 8 33 -3 42 -8 6 -14 18 -14 25 0 19 35 18
51 -2 7 -9 22 -19 33 -23 19 -7 19 -8 -1 -27 -11 -10 -27 -33 -36 -49 -8 -17
-27 -37 -41 -45 -30 -15 -32 -23 -11 -44 8 -8 15 -19 15 -25 0 -15 -80 -35
-92 -23 -15 15 -6 68 11 64 8 -2 20 -1 28 2 11 5 12 10 2 28 -7 12 -18 28 -25
36 -31 30 -47 162 -20 162 7 0 19 -7 26 -15z m-160 -225 c0 -5 -5 -10 -11 -10
-5 0 -7 5 -4 10 3 6 8 10 11 10 2 0 4 -4 4 -10z"/>
<path d="M9193 1683 c-7 -3 -13 -11 -13 -19 0 -16 18 -18 38 -5 11 6 11 10 0
18 -7 6 -19 8 -25 6z"/>
<path d="M2592 1422 c-37 -31 -41 -52 -11 -70 19 -12 24 -10 50 14 19 18 29
38 29 56 0 36 -24 37 -68 0z"/>
<path d="M9478 1393 c7 -3 16 -2 19 1 4 3 -2 6 -13 5 -11 0 -14 -3 -6 -6z"/>
<path d="M2270 1375 c0 -17 2 -18 24 -9 18 7 12 24 -10 24 -8 0 -14 -7 -14
-15z"/>
<path d="M2468 1284 c-22 -11 -26 -22 -30 -71 -6 -65 13 -123 38 -123 28 0 84
41 90 66 4 14 -1 39 -10 58 -9 19 -16 40 -16 48 0 25 -42 38 -72 22z"/>
<path d="M259 1018 c0 -18 -2 -139 -4 -269 -2 -137 -7 -245 -13 -256 -7 -12
-7 -25 -1 -34 14 -22 11 -69 -6 -85 -18 -19 -17 -29 -19 176 0 85 -5 161 -9
168 -6 9 -14 4 -30 -19 -22 -31 -41 -44 -108 -74 -33 -14 -37 -21 -42 -63 -4
-26 -5 -158 -4 -295 l2 -247 87 0 c49 0 88 3 88 8 7 117 20 152 20 54 0 -55 2
-62 20 -62 16 0 20 7 20 33 0 17 2 86 5 152 8 211 18 705 16 813 -1 17 -5 32
-11 32 -5 0 -10 -15 -11 -32z m-18 -777 c-1 -44 -18 -79 -31 -64 -4 4 -3 44 3
88 9 71 11 77 19 50 5 -16 9 -50 9 -74z"/>
<path d="M9152 1033 c14 -17 35 -16 41 1 4 9 -3 13 -23 12 -21 -1 -26 -4 -18
-13z"/>
<path d="M1620 770 c0 -19 3 -21 12 -12 9 9 9 15 0 24 -9 9 -12 7 -12 -12z"/>
<path d="M2063 331 c-24 -20 -21 -31 9 -31 13 0 18 7 18 25 0 30 1 29 -27 6z"/>
<path d="M8910 213 c0 -23 15 -39 24 -25 3 5 -1 18 -9 28 -14 18 -14 18 -15
-3z"/>
<path d="M1965 210 c-4 -6 6 -10 22 -10 22 0 25 2 13 10 -19 12 -27 12 -35 0z"/>
<path d="M1899 143 c-13 -15 -12 -16 11 -10 16 4 30 1 42 -10 10 -9 18 -12 18
-7 -1 33 -51 52 -71 27z"/>
<path d="M8902 98 c-18 -18 -14 -28 8 -28 11 0 20 6 20 14 0 21 -15 27 -28 14z"/>
<path d="M1917 94 c-4 -4 -7 -14 -7 -23 0 -11 3 -12 11 -4 6 6 10 16 7 23 -2
6 -7 8 -11 4z"/>
</g>
</svg>
